<svg width="66" height="17" viewBox="0 0 66 17" fill="none" xmlns="http://www.w3.org/2000/svg">
<path d="M9.002 0L11.128 6.494H18.005L12.441 10.506L14.566 17L9.002 12.987L3.438 17L5.564 10.506L0 6.494H6.878L9.002 0Z" fill="#81B3D2"/>
<path d="M33.002 0L35.128 6.494H42.005L36.441 10.506L38.566 17L33.002 12.987L27.438 17L29.564 10.506L24 6.494H30.878L33.002 0Z" fill="#81B3D2"/>
<path d="M56.002 0L58.128 6.494H65.005L59.441 10.506L61.566 17L56.002 12.987L50.438 17L52.564 10.506L47 6.494H53.878L56.002 0Z" fill="#81B3D2"/>
</svg>
